<?xml version="1.0" encoding="UTF-8" standalone="no"?>
<!-- Created with Inkscape (http://www.inkscape.org/) -->

<svg
   width="772.00262mm"
   height="84.731003mm"
   viewBox="0 0 772.00262 84.731003"
   version="1.1"
   id="svg5"
   inkscape:version="1.1.1 (3bf5ae0d25, 2021-09-20)"
   sodipodi:docname="michael.gr.svg"
   inkscape:export-filename="C:\Users\MBV\Downloads\michael.gr.png"
   inkscape:export-xdpi="74.639999"
   inkscape:export-ydpi="74.639999"
   xmlns:inkscape="http://www.inkscape.org/namespaces/inkscape"
   xmlns:sodipodi="http://sodipodi.sourceforge.net/DTD/sodipodi-0.dtd"
   xmlns="http://www.w3.org/2000/svg"
   xmlns:svg="http://www.w3.org/2000/svg">
  <sodipodi:namedview
     id="namedview7"
     pagecolor="#505050"
     bordercolor="#ffffff"
     borderopacity="1"
     inkscape:pageshadow="0"
     inkscape:pageopacity="0"
     inkscape:pagecheckerboard="1"
     inkscape:document-units="mm"
     showgrid="false"
     inkscape:zoom="0.45291836"
     inkscape:cx="1129.3426"
     inkscape:cy="279.29978"
     inkscape:window-width="2560"
     inkscape:window-height="1361"
     inkscape:window-x="2551"
     inkscape:window-y="-9"
     inkscape:window-maximized="1"
     inkscape:current-layer="layer1"
     showguides="true"
     inkscape:guide-bbox="true"
     lock-margins="true"
     fit-margin-top="10"
     fit-margin-left="130"
     fit-margin-right="130"
     fit-margin-bottom="0" />
  <defs
     id="defs2" />
  <g
     inkscape:label="Layer 1"
     inkscape:groupmode="layer"
     id="layer1"
     transform="translate(77.783546,-38.24883)">
    <path
       style="fill:#ff0303;fill-opacity:1;stroke-width:1.16665"
       d="m 468.71049,114.90887 h 27.9996 l 0.16094,-7.28217 -34.65923,-0.12435 c -5.59969,0.12157 -8.35371,-0.50774 -8.39833,-8.838243 l 0.0529,-25.137924 c -0.0265,-8.006042 1.86473,-10.173832 8.18444,-10.148619 l 40.35289,0.160987 c 6.36314,0.185106 8.99937,2.47866 8.85796,9.979571 l -0.15344,42.217098 c -0.0538,5.80158 -2.05125,7.2125 -8.66312,7.24461 l -33.73462,-0.0256 z m 27.9996,-41.237354 h -27.9996 v 24.945031 h 27.9996 z M 52.216454,73.410181 c 0,-7.938375 4.292819,-9.586335 11.243668,-9.586335 h 53.264418 c 6.14589,0 11.32416,2.393741 11.32416,9.688156 V 107.78769 H 112.88225 V 73.584317 H 97.715799 V 107.78769 H 82.549352 V 73.584317 H 67.382901 V 107.78769 H 52.216454 Z M 135.0486,63.454997 h 15.16645 V 107.78769 H 135.0486 Z m 23.33299,35.15797 0.13414,-25.015934 c 0.0304,-5.73489 2.59121,-9.743609 7.43769,-9.947988 l 47.26068,-0.11288 V 73.73152 h -40.83275 v 24.804556 h 40.74719 v 9.251634 l -45.0164,-0.0735 c -7.01475,0.0735 -9.57012,-3.19689 -9.73055,-9.101233 z m 61.83244,-50.364137 15.16645,0.04013 v 15.165508 h 31.98243 c 5.12182,0 8.58394,5.007343 8.99339,10.21439 l -9.3e-4,34.118842 H 262.21345 V 73.75201 h -26.83297 v 34.03568 h -15.16645 z m 65.39325,50.347804 0.022,-8.539969 c 0.009,-4.31256 1.97589,-7.341782 6.35132,-7.283299 l 34.39677,0.03087 V 73.726982 H 285.8259 V 63.426728 l 46.40622,0.03924 c 4.80195,0.35284 7.89447,6.17516 7.89892,10.344265 l 0.0265,24.724923 c 0.004,5.761594 -2.11805,9.001984 -7.52333,9.139454 l -40.61181,-0.0842 c -4.95395,-0.0256 -6.39431,-3.61202 -6.41508,-8.993979 z m 40.77191,-8.42253 h -27.9996 v 8.394227 h 27.9996 z m 21.76776,8.390298 -0.0498,-25.146593 c -0.0132,-6.208142 1.52807,-9.981341 6.90325,-9.959744 l 40.07178,0.160987 c 6.07446,0.02425 7.72604,2.29815 7.72604,10.070692 l -0.009,8.794238 c 0,5.403332 -2.22149,7.679619 -6.67095,7.679619 l -33.57311,-0.03704 v 8.408037 h 40.2285 v 9.091712 l -46.94527,-0.1183 c -4.48373,-0.13819 -7.403,-2.55894 -7.6816,-8.943803 z m 41.23133,-20.526285 v -4.324756 h -13.41643 -13.41648 v 4.324756 4.727241 h 13.41648 13.41643 z m 22.16638,-29.628296 h 15.16643 v 59.377869 l -15.16643,0.0805 z m 106.28947,25.201622 c -0.53685,-7.789211 1.45929,-10.025117 7.12376,-10.311175 l 39.26116,0.113982 -0.16094,10.337795 H 532.87626 V 107.78772 H 517.70983 Z M 433.71099,100.7026 c 0,-4.251577 2.74833,-6.999898 6.99991,-6.999898 4.25157,0 6.99989,2.748321 6.99989,6.999898 0,4.25158 -2.74832,6.9999 -6.99989,6.9999 -4.2459,-0.25654 -6.93302,-2.96599 -6.99991,-6.9999 z M 135.0486,48.288545 h 15.16645 v 10.49985 H 135.0486 Z"
       id="path848"
       sodipodi:nodetypes="ccccccsccccccscccscssccccccccccscccccccccccccccccccscccccccccccccccccscccccccccccsscccccccccccccccsccccccccccccccccccccccccccc" />
  </g>
</svg>
