<?xml version="1.0" encoding="UTF-8" standalone="no"?>
<!-- Created with Inkscape (http://www.inkscape.org/) -->

<svg width="500mm" height="125mm" viewBox="0 0 500 125" version="1.1" id="svg5" inkscape:version="1.2.2 (732a01da63, 2022-12-09)" sodipodi:docname="michael.gr-logo-500x125.svg" inkscape:export-filename="michael.gr-logo-500x125.png" inkscape:export-xdpi="25.4" inkscape:export-ydpi="25.4" xmlns:inkscape="http://www.inkscape.org/namespaces/inkscape" xmlns:sodipodi="http://sodipodi.sourceforge.net/DTD/sodipodi-0.dtd" xmlns:xlink="http://www.w3.org/1999/xlink" xmlns="http://www.w3.org/2000/svg" xmlns:svg="http://www.w3.org/2000/svg">
  <sodipodi:namedview id="namedview7" pagecolor="#505050" bordercolor="#ffffff" borderopacity="1" inkscape:pageshadow="0" inkscape:pageopacity="0" inkscape:pagecheckerboard="1" inkscape:document-units="mm" showgrid="false" inkscape:zoom="1.2810466" inkscape:cx="958.98153" inkscape:cy="-124.50757" inkscape:window-width="2560" inkscape:window-height="1361" inkscape:window-x="2551" inkscape:window-y="-9" inkscape:window-maximized="1" inkscape:current-layer="layer1" showguides="true" inkscape:guide-bbox="true" lock-margins="true" fit-margin-top="10" fit-margin-left="130" fit-margin-right="130" fit-margin-bottom="0" inkscape:showpageshadow="0" inkscape:deskcolor="#505050">
    <sodipodi:guide position="-15.437848,74.043079" orientation="0,-1" id="guide5317" inkscape:locked="false" />
    <sodipodi:guide position="-3.407076,49.411213" orientation="0,-1" id="guide5319" inkscape:locked="false" />
    <sodipodi:guide position="-3.407076,39.814605" orientation="0,-1" id="guide5321" inkscape:locked="false" />
    <sodipodi:guide position="-15.437848,66.525714" orientation="0,-1" id="guide5323" inkscape:locked="false" />
    <sodipodi:guide position="-3.407076,56.929107" orientation="0,-1" id="guide5329" inkscape:locked="false" />
    <sodipodi:guide position="55.455146,83.639692" orientation="0,-1" id="guide5427" inkscape:locked="false" />
    <sodipodi:guide position="-3.4070751,32.296181" orientation="0,-1" id="guide6414" inkscape:locked="false" />
    <sodipodi:guide position="-3.407076,22.700101" orientation="0,-1" id="guide6416" inkscape:locked="false" />
    <sodipodi:guide position="-3.4070755,91.157585" orientation="0,-1" id="guide6433" inkscape:locked="false" />
    <sodipodi:guide position="-3.4070755,100.7542" orientation="0,-1" id="guide6435" inkscape:locked="false" />
  </sodipodi:namedview>
  <defs id="defs2" />
  <g inkscape:label="Layer 1" inkscape:groupmode="layer" id="layer1" transform="translate(-38.703239,-23.11433)">
    <rect style="fill:#000000;fill-opacity:0.01;stroke-width:7.99999;stroke-linecap:round;stroke-linejoin:round;stroke-miterlimit:0;stop-color:#000000" id="rect4460" width="500" height="125" x="38.253498" y="23.11433" />
    <path id="path6445" style="fill:#f20d0d;fill-opacity:1;stroke-width:1.16664" d="m 202.85653,47.359879 v 60.939951 h 14.71693 V 74.07091 h 26.03665 v 34.22892 H 257.3333 V 74.027501 c 0.0674,-4.949276 -3.75675,-9.552905 -8.72659,-9.552905 H 217.57346 V 47.399153 Z m 185.65378,0 v 60.939951 h 14.71642 V 47.359879 Z m -268.29215,0.03876 v 9.558073 h 14.71641 v -9.558073 z m 358.52062,16.798869 -39.15524,0.276986 c -6.13209,0.04335 -7.96743,1.645928 -7.94163,9.414413 l -0.0517,24.392309 c -0.008,7.153894 2.25115,10.018504 8.14938,10.018504 h 33.47444 v 6.95151 h -27.16889 v 9.59632 h 32.73392 c 6.41566,-0.0312 8.35401,-3.16489 8.40621,-8.7943 l 0.14883,-42.172095 c 0.13721,-7.278342 -2.42102,-9.504034 -8.59534,-9.683647 z M 50.753666,64.474596 c -6.744602,0 -10.909928,1.598934 -10.909928,9.301758 V 108.29983 H 54.560152 V 74.07091 h 14.716415 v 34.22892 H 83.992981 V 74.07091 h 14.716414 v 34.22892 H 113.42633 V 73.875573 c 0,-7.077973 -5.02496,-9.400977 -10.98848,-9.400977 z m 69.464494,0 v 43.825234 h 14.71641 V 64.474596 Z m 29.98783,0 c -4.70267,0.198315 -7.18773,3.918418 -7.21713,9.483142 l -0.1297,24.273971 c 0.15566,5.729151 2.58353,10.139321 9.39012,10.068121 h 43.73221 V 98.703117 H 156.44334 V 74.07091 l 39.62135,0.01757 v -9.613884 z m 116.3159,0 v 9.596314 h 39.3485 v 7.517887 h -33.37625 c -5.48484,0 -6.17664,5.411715 -6.18464,9.596313 v 7.517888 c 0.0201,5.222272 1.52133,9.572032 6.3283,9.596832 h 39.35522 c 5.24488,-0.13342 7.25113,-4.55292 7.24813,-10.143569 l -0.0253,-23.9913 c -0.004,-4.0454 -2.99263,-9.690365 -7.66465,-9.690365 z m 67.27703,0 c -5.21569,-0.02096 -6.80527,3.572367 -6.80527,9.596314 v 24.661027 h 5.2e-4 c 0.0638,6.247053 3.1548,9.433813 7.50548,9.567893 h 45.50059 V 98.702998 H 340.81038 V 91.18511 h 32.50396 c 4.31743,0 6.70088,-3.361123 6.70088,-8.604126 l 0.008,-8.533329 c 0,-7.541912 -1.60248,-9.549529 -7.4967,-9.573059 z m 166.72147,-1.05e-4 c -5.54802,0 -6.81389,1.835738 -6.80889,9.497095 v 34.328134 h 14.59601 V 74.070805 h 30.41262 v -9.596314 z m -54.47523,9.555489 h 27.16889 v 24.672913 h -27.16889 z m -105.18362,0.04093 h 26.03665 v 7.517887 h -26.03665 z m -62.15848,17.1142 h 27.16888 v 7.517888 H 278.70306 Z M 410.3281,98.74175 v 9.55807 h 14.71642 v -9.55807 z" sodipodi:nodetypes="ccccccccscccccccccccccscccsccccccccscccccccccccsssccccccccccccccccccccsccccccsccscccccccsccccsccccccsccccccccccccccccccccc" />
    <g id="g6431" transform="matrix(4.9597967,0,0,1,-145.09781,-5.271911e-4)" style="stroke-width:0.449022">
      <rect style="fill:#ffffff;fill-opacity:1;stroke-width:3.59218;stroke-linecap:round;stroke-linejoin:round;stroke-miterlimit:0;stop-color:#000000" id="rect5546" width="1.4604361" height="9.5960808" x="34.204506" y="47.360661" />
      <use x="0" y="0" xlink:href="#rect5546" id="use5585" transform="translate(-4.8184359e-7,17.114504)" style="stroke-width:0.449022" />
      <use x="0" y="0" xlink:href="#rect5546" id="use5593" transform="translate(-4.8184359e-7,34.229008)" style="stroke-width:0.449022" />
      <use x="0" y="0" xlink:href="#rect5546" id="use5660" transform="translate(-4.8184359e-7,51.343511)" style="stroke-width:0.449022" />
      <rect style="fill:#14b7ee;fill-opacity:1;stroke-width:3.59218;stroke-linecap:round;stroke-linejoin:round;stroke-miterlimit:0;stop-color:#000000" id="rect5546-3" width="1.4604361" height="7.5173645" x="34.204506" y="56.957272" />
      <use x="0" y="0" xlink:href="#rect5546-3" id="use6410" transform="translate(-4.8184359e-7,17.114504)" style="stroke-width:0.449022" />
      <use x="0" y="0" xlink:href="#rect5546-3" id="use6412" transform="translate(-4.8184359e-7,34.229008)" style="stroke-width:0.449022" />
      <use x="0" y="0" xlink:href="#rect5546" id="use6418" transform="translate(-4.8184359e-7,68.458015)" style="stroke-width:0.449022" />
      <use x="0" y="0" xlink:href="#rect5546-3" id="use6420" transform="translate(-4.8184359e-7,51.343511)" style="stroke-width:0.449022" />
    </g>
  </g>
</svg>
