<?xml version="1.0" encoding="UTF-8" standalone="no"?>
<!-- Created with Inkscape (http://www.inkscape.org/) -->

<svg width="100mm" height="100mm" viewBox="0 0 99.999999 99.999999" version="1.1" id="svg5" inkscape:version="1.2.2 (732a01da63, 2022-12-09)" sodipodi:docname="michael.gr-favicon.svg" inkscape:export-filename="michael.gr-favicon.png" inkscape:export-xdpi="141.11111" inkscape:export-ydpi="141.11111" xmlns:inkscape="http://www.inkscape.org/namespaces/inkscape" xmlns:sodipodi="http://sodipodi.sourceforge.net/DTD/sodipodi-0.dtd" xmlns="http://www.w3.org/2000/svg" xmlns:svg="http://www.w3.org/2000/svg">
  <sodipodi:namedview id="namedview7" pagecolor="#505050" bordercolor="#ffffff" borderopacity="1" inkscape:pageshadow="0" inkscape:pageopacity="0" inkscape:pagecheckerboard="1" inkscape:document-units="mm" showgrid="false" inkscape:zoom="2.5620931" inkscape:cx="175.05219" inkscape:cy="109.28565" inkscape:window-width="2560" inkscape:window-height="1361" inkscape:window-x="2551" inkscape:window-y="-9" inkscape:window-maximized="1" inkscape:current-layer="layer1" showguides="true" inkscape:guide-bbox="true" lock-margins="true" fit-margin-top="10" fit-margin-left="130" fit-margin-right="130" fit-margin-bottom="0" inkscape:showpageshadow="0" inkscape:deskcolor="#505050" />
  <defs id="defs2" />
  <g inkscape:label="Layer 1" inkscape:groupmode="layer" id="layer1" transform="translate(-49.355747,-47.81723)">
    <rect style="fill:#000000;fill-opacity:0.01;stroke-width:7.99999;stroke-linecap:round;stroke-linejoin:round;stroke-miterlimit:0;stop-color:#000000" id="rect4392" width="99.999992" height="100" x="49.355747" y="47.81723" />
    <rect style="fill:#bfbfbf;fill-opacity:0;stroke-width:7.99999;stroke-linecap:round;stroke-linejoin:round;stroke-miterlimit:0;stop-color:#000000" id="rect443" width="100" height="100" x="49.355747" y="47.81723" />
    <path id="path848-1" style="fill:#ffffff;fill-opacity:1;stroke-width:1.16665" d="m 80.148342,69.263079 c -6.125948,0.05011 -12.254603,0.0192 -18.378596,0.161474 -3.984831,0.158236 -8.18727,1.825562 -10.375001,5.318527 -2.116945,3.39505 -2.086991,7.540581 -2.017149,11.401552 -0.002,13.420556 -0.0041,26.841108 -0.0061,40.261668 7.708849,0 15.417699,0 23.126547,0 0,-13.47534 0,-26.950688 0,-40.426031 4.241244,0 8.482488,0 12.723731,0 0,13.475343 10e-7,26.950691 0,40.426031 7.709537,0 15.419076,0 23.128616,0 0,-13.47534 0,-26.950688 0,-40.426031 4.24054,0 8.4811,0 12.72166,0 0,13.475343 0,26.950691 0,40.426031 7.71023,0 15.42045,0 23.13067,0 -0.0366,-15.29947 0.12055,-30.603179 -0.19039,-45.899362 -0.61852,-4.760431 -4.37695,-9.190975 -9.14638,-10.368785 -4.5847,-1.304338 -9.39895,-0.789044 -14.0995,-0.895723 -13.53937,0.0025 -27.078719,-0.01825 -40.618063,0.02065 z" />
    <path style="fill:#b81414;fill-opacity:1;stroke-width:1.16665" d="m 51.971284,83.166346 c 0,-9.382711 5.07387,-11.330506 13.28938,-11.330506 H 128.2162 c 7.2641,0 13.38452,2.829265 13.38452,11.450851 V 123.79862 H 123.67483 V 83.372163 H 105.74896 V 123.79862 H 87.823054 V 83.372163 H 69.897167 V 123.79862 H 51.971284 Z" id="path848" sodipodi:nodetypes="cssccccccccccsc" />
  </g>
</svg>
